<svg xmlns="http://www.w3.org/2000/svg" width="130" height="130" viewBox="0 0 130 130"><g transform="translate(6 6)"><g transform="translate(-11.3 -10.7)" fill="#631a35" fill-rule="evenodd"><path d="M 70.29998016357422 131.7000274658203 C 61.65488433837891 131.7000274658203 53.50066757202148 130.0679168701172 46.06411743164062 126.8493576049805 C 42.42917251586914 125.343376159668 38.89635467529297 123.4313125610352 35.56279373168945 121.1658020019531 C 32.32717895507812 118.9668426513672 29.25021362304688 116.4154739379883 26.4173583984375 113.5826263427734 C 23.58452224731445 110.7497863769531 21.03317642211914 107.6728057861328 18.83419609069824 104.4371871948242 C 16.56867027282715 101.103630065918 14.65660190582275 97.57080841064453 13.15062236785889 93.93588256835938 C 9.932083129882812 86.49935150146484 8.299995422363281 78.34511566162109 8.299995422363281 69.69998931884766 C 8.299995422363281 61.05484008789062 9.932084083557129 52.90060043334961 13.15062427520752 45.46410751342773 C 14.65660381317139 41.82917785644531 16.56867027282715 38.29636383056641 18.83419609069824 34.96278762817383 C 21.03315925598145 31.72718620300293 23.58450508117676 28.65020370483398 26.4173583984375 25.81735038757324 C 29.2502326965332 22.98449516296387 32.32719421386719 20.43314933776855 35.56279373168945 18.23420524597168 C 38.8963737487793 15.96866130828857 42.4291877746582 14.0565938949585 46.06411743164062 12.55063247680664 C 53.5006103515625 9.332093238830566 61.65483093261719 7.700004577636719 70.29998016357422 7.700004577636719 C 78.94512176513672 7.700004577636719 87.09935760498047 9.33209228515625 94.53587341308594 12.55063152313232 C 98.17079925537109 14.0565938949585 101.7036209106445 15.96866130828857 105.0372161865234 18.23418617248535 C 108.2728118896484 20.43314933776855 111.3497772216797 22.98449516296387 114.1826477050781 25.81735038757324 C 117.0154876708984 28.65022277832031 119.5668334960938 31.72718620300293 121.7657775878906 34.96278762817383 C 124.0313186645508 38.29636383056641 125.9433670043945 41.82918167114258 127.449348449707 45.46410751342773 C 130.6679077148438 52.90067291259766 132.2999877929688 61.05489349365234 132.2999877929688 69.69998931884766 C 132.2999877929688 78.34513092041016 130.6679077148438 86.49937438964844 127.449348449707 93.93589019775391 C 125.9433670043945 97.57081604003906 124.0313186645508 101.103630065918 121.7657775878906 104.4371871948242 C 119.5668106079102 107.6728057861328 117.0154876708984 110.7497863769531 114.1826477050781 113.5826263427734 C 111.3497924804688 116.4154968261719 108.272834777832 118.9668426513672 105.0371932983398 121.1658020019531 C 101.7036361694336 123.4313278198242 98.17081451416016 125.343376159668 94.53587341308594 126.8493576049805 C 87.09930419921875 130.0679168701172 78.945068359375 131.7000274658203 70.29998016357422 131.7000274658203 Z" stroke="none"/><path d="M 70.29997253417969 128.7000122070312 C 78.31237030029297 128.7000122070312 86.08187103271484 127.2432098388672 93.36582946777344 124.0868148803711 C 100.4070129394531 121.1732330322266 106.7197647094727 116.8029022216797 112.0613250732422 111.4613189697266 C 117.4028701782227 106.1197509765625 121.7732238769531 99.80698394775391 124.6868057250977 92.76583862304688 C 127.8432006835938 85.48185729980469 129.2999877929688 77.71231842041016 129.2999877929688 69.69998168945312 C 129.2999877929688 61.68764877319336 127.8431854248047 53.91810989379883 124.6868057250977 46.63415145874023 C 121.7732238769531 39.59298324584961 117.4028701782227 33.28023529052734 112.0613250732422 27.93867111206055 C 106.7197647094727 22.59710884094238 100.4070129394531 18.22673416137695 93.36582946777344 15.31317138671875 C 86.08187103271484 12.15677547454834 78.31237030029297 10.70000457763672 70.29997253417969 10.70000457763672 C 62.28766250610352 10.70000457763672 54.51810073852539 12.15677547454834 47.2341423034668 15.31317138671875 C 40.19299697875977 18.22673416137695 33.88026809692383 22.59710884094238 28.53868293762207 27.93867111206055 C 23.19712066650391 33.28023529052734 18.82674598693848 39.59298324584961 15.91316223144531 46.63415145874023 C 12.75678730010986 53.91810989379883 11.29999542236328 61.68764877319336 11.29999542236328 69.69998168945312 C 11.29999542236328 77.71231842041016 12.75678730010986 85.48185729980469 15.91316223144531 92.76583862304688 C 18.82674598693848 99.80698394775391 23.19712066650391 106.1197509765625 28.53868293762207 111.4613189697266 C 33.88026809692383 116.8029022216797 40.19299697875977 121.1732330322266 47.2341423034668 124.0868148803711 C 54.51810073852539 127.2432098388672 62.28766250610352 128.7000122070312 70.29997253417969 128.7000122070312 M 70.29997253417969 134.7000122070312 C 61.23310089111328 134.7000122070312 52.66997528076172 132.9814605712891 44.84849548339844 129.5921478271484 C 37.33674621582031 126.484733581543 30.39109992980957 121.7990264892578 24.2960376739502 115.7039642333984 C 18.20097541809082 109.6088790893555 13.51524543762207 102.6632308959961 10.36905765533447 95.05995941162109 C 7.018516063690186 87.32996368408203 5.299995422363281 78.76683807373047 5.299995422363281 69.69998168945312 C 5.299995422363281 60.63312911987305 7.018516063690186 52.07000350952148 10.40782833099365 44.24850463867188 C 13.51524543762207 36.73677444458008 18.20095443725586 29.79113006591797 24.2960376739502 23.69602584838867 C 30.39118385314941 17.60092163085938 37.33683013916016 12.91521263122559 44.94003677368164 9.76906681060791 C 52.6699333190918 6.418525218963623 61.23305892944336 4.700004577636719 70.29997253417969 4.700004577636719 C 79.36691284179688 4.700004577636719 87.93003845214844 6.418525218963623 95.75147247314453 9.80783748626709 C 103.2632064819336 12.91521263122559 110.2088470458984 17.60092163085938 116.3039779663086 23.69602584838867 C 122.399040222168 29.79110908508301 127.0847244262695 36.73675537109375 130.2309112548828 44.34004592895508 C 133.5814819335938 52.07004547119141 135.2999877929688 60.63315200805664 135.2999877929688 69.69998168945312 C 135.2999877929688 78.76686096191406 133.5814819335938 87.32998657226562 130.192138671875 95.15148162841797 C 127.0847015380859 102.6632308959961 122.3990173339844 109.6088790893555 116.3039779663086 115.7039413452148 C 110.2089309692383 121.7990036010742 103.2632904052734 126.4847106933594 95.65993499755859 129.6309204101562 C 87.92999267578125 132.9814605712891 79.36686706542969 134.7000122070312 70.29997253417969 134.7000122070312 Z" stroke="none" fill="#fff"/></g><g transform="translate(17.239 13.597)"><path d="M29.285,88.226A40.026,40.026,0,0,1,18.6,60.79,40.547,40.547,0,1,1,89.013,88.226Z" transform="translate(-18.116 -11.016)" fill="#a61c49" fill-rule="evenodd"/><ellipse cx="36.663" cy="36.663" rx="36.663" ry="36.663" transform="translate(4.37 12.868)" fill="#fea"/><path d="M57.01,16.3s-6.8,3.4-8.255,3.4S40.5,16.3,40.5,16.3v8.741A38.775,38.775,0,0,1,57.01,34.51V16.3Z" transform="translate(13.158 -16.3)" fill="#29cfc3" fill-rule="evenodd"/><path d="M43.3,46l19.424,18.7a39.179,39.179,0,0,0,1.7-11.9A40.355,40.355,0,0,0,53.983,25.6,58.66,58.66,0,0,1,43.3,46Z" transform="translate(17.157 -3.02)" fill="#a61c49" fill-rule="evenodd"/><path d="M21.314,75.358c2.428.243,5.1.486,7.527.486a62.006,62.006,0,0,0,59.243-43.7A40.69,40.69,0,0,0,18.4,60.79a48.564,48.564,0,0,0,2.914,14.568Z" transform="translate(-18.4 -11.016)" fill="#a61c49" fill-rule="evenodd"/><path d="M39.567,51.134c3.885,0,8.012-2.914,7.041-5.1-.486-.971-3.4,1.457-7.041,1.457-3.4,0-6.313-2.185-6.8-1.457C31.312,48.22,35.682,51.134,39.567,51.134Z" transform="translate(1.709 25.833)" fill="#631a35" fill-rule="evenodd"/><path d="M39.943,44.013c0-.486-.243-.728-.243-1.214a5.1,5.1,0,1,1,7.527,4.37,5.176,5.176,0,0,0-4.856-3.885A4.1,4.1,0,0,0,39.943,44.013Z" transform="translate(12.016 14.259)" fill="#631a35" fill-rule="evenodd"/><g transform="translate(34.235 83.765)"><path d="M56.3,50.8" transform="translate(1.486 -50.8)" fill="#23b0a7" fill-rule="evenodd"/><path d="M32.5,51.5" transform="translate(-32.5 -49.8)" fill="#26bfb5" fill-rule="evenodd"/><path d="M38,51.5" transform="translate(-24.646 -49.8)" fill="#26bfb5" fill-rule="evenodd"/></g></g></g></svg>